<svg height="448pt" viewBox="-40 0 448 448" width="448pt" xmlns="http://www.w3.org/2000/svg"><path d="m216 0h-3.792969c24.042969 13.839844 44.519531 33.105469 59.792969 56.265625v-.265625h44.375c-26.773438-34.816406-61.925781-56-100.375-56zm0 0"/><path d="m192 192c0-13.253906-10.746094-24-24-24h-56v48h56c13.253906 0 24-10.746094 24-24zm0 0"/><path d="m272 392v-.265625c-15.273438 23.160156-35.75 42.425781-59.792969 56.265625h3.792969c38.449219 0 73.601562-21.183594 100.375-56zm0 0"/><path d="m208 256c0-13.253906-10.746094-24-24-24h-72v48h72c13.253906 0 24-10.746094 24-24zm0 0"/><path d="m152 448c83.816406 0 152-100.488281 152-224s-68.183594-224-152-224-152 100.488281-152 224 68.183594 224 152 224zm-128.625-157.449219c-2.460938-10.871093-4.308594-21.871093-5.535156-32.949219-.484375-4.394531 2.683594-8.351562 7.074218-8.835937 4.394532-.488281 8.351563 2.679687 8.839844 7.074219 1.152344 10.472656 2.894532 20.871094 5.222656 31.144531.476563 2.070313.109376 4.25-1.019531 6.050781-1.128906 1.800782-2.929687 3.078125-5.003906 3.550782-.585937.128906-1.183594.199218-1.785156.199218-3.734375-.007812-6.96875-2.59375-7.792969-6.234375zm33.65625 66.242188c-3.910156 2.058593-8.75.558593-10.808594-3.351563-5.195312-9.933594-9.703125-20.214844-13.488281-30.769531-1.492187-4.15625.664063-8.742187 4.820313-10.234375 4.160156-1.496094 8.742187.660156 10.238281 4.820312 3.53125 9.851563 7.738281 19.453126 12.589843 28.726563.992188 1.878906 1.195313 4.074219.566407 6.101563-.628907 2.03125-2.035157 3.726562-3.917969 4.714843zm42.105469 49c-2.835938 3.390625-7.882813 3.84375-11.273438 1.007812-8.730469-7.375-16.617187-15.691406-23.519531-24.800781-2.683594-3.511719-2.015625-8.53125 1.496094-11.214844 3.511718-2.683594 8.53125-2.015625 11.214844 1.496094 6.179687 8.175781 13.246093 15.644531 21.074218 22.261719 3.375 2.832031 3.828125 7.863281 1.007813 11.25zm53.015625 26.207031h-.152344c-11.84375-.042969-23.566406-2.417969-34.496094-6.984375-4.085937-1.679687-6.035156-6.355469-4.355468-10.445313 1.679687-4.085937 6.355468-6.035156 10.445312-4.355468 8.996094 3.773437 18.648438 5.738281 28.40625 5.785156 4.433594-.003906 8.035156 3.566406 8.070312 8 .019532 2.113281-.808593 4.144531-2.292968 5.648438-1.488282 1.5-3.511719 2.347656-5.625 2.351562zm64.230468-25.40625c-8.875 7.570312-18.855468 13.738281-29.597656 18.285156-.96875.410156-2.011718.625-3.066406.625-3.816406.007813-7.109375-2.6875-7.855469-6.433594-.75-3.746093 1.253907-7.496093 4.785157-8.957031 9.226562-3.9375 17.800781-9.257812 25.421874-15.777343 3.386719-2.839844 8.433594-2.398438 11.273438.984374 2.839844 3.382813 2.402344 8.429688-.984375 11.273438zm41.546876-53.433594c-5.222657 10.007813-11.273438 19.5625-18.089844 28.558594-2.683594 3.511719-7.707032 4.179688-11.214844 1.496094-3.511719-2.683594-4.179688-7.703125-1.496094-11.214844 6.269532-8.285156 11.828125-17.082031 16.625-26.296875 2.050782-3.914063 6.890625-5.421875 10.804688-3.367187 3.914062 2.054687 5.425781 6.894531 3.371094 10.808593zm22.765624-62.921875c-2.449218 10.902344-5.5625 21.640625-9.320312 32.160157-1.488281 4.160156-6.070312 6.324218-10.230469 4.832031-4.160156-1.488281-6.324219-6.070313-4.832031-10.230469 3.546875-9.898438 6.484375-20 8.800781-30.257812.972657-4.308594 5.253907-7.015626 9.5625-6.042969 4.308594.972656 7.015625 5.253906 6.042969 9.566406zm7.304688-66.398437c.003906 11.179687-.601562 22.351562-1.808594 33.464844-.441406 4.054687-3.863281 7.128906-7.945312 7.136718-.292969 0-.585938-.019531-.878906-.050781-4.378907-.480469-7.546876-4.414063-7.078126-8.796875 1.140626-10.492188 1.710938-21.039062 1.710938-31.59375-.023438-4.476562 3.523438-8.160156 8-8.304688 2.089844-.070312 4.117188.710938 5.621094 2.15625 1.507812 1.449219 2.363281 3.441407 2.378906 5.53125zm-7.441406-66.703125c2.480468 10.863281 4.351562 21.855469 5.601562 32.925781.46875 4.378906-2.6875 8.3125-7.0625 8.800781-.296875.039063-.597656.058594-.898437.058594-4.074219-.003906-7.496094-3.070313-7.941407-7.121094-1.167968-10.46875-2.925781-20.867187-5.265624-31.136719-.984376-4.308593 1.710937-8.597656 6.019531-9.578124 4.308593-.984376 8.597656 1.710937 9.582031 6.019531zm-33.734375-66.191407c3.90625-2.0625 8.742187-.570312 10.808593 3.335938 5.222657 9.921875 9.753907 20.195312 13.566407 30.742188 1.5 4.152343-.648438 8.738281-4.800781 10.242187-.867188.316406-1.785157.480469-2.710938.476563-3.371094.003906-6.382812-2.109376-7.527344-5.277344-3.542968-9.851563-7.765625-19.445313-12.632812-28.710938-2.066406-3.898437-.59375-8.730468 3.296875-10.808594zm-42.207031-48.921874c2.824218-3.394532 7.867187-3.855469 11.261718-1.03125 8.753906 7.367187 16.660156 15.6875 23.578125 24.800781 1.796875 2.261719 2.234375 5.316406 1.144531 7.992187-1.089843 2.675782-3.539062 4.558594-6.40625 4.917969-2.867187.363281-5.707031-.847656-7.425781-3.167969-6.195312-8.160156-13.277343-15.613281-21.113281-22.214844-1.640625-1.355468-2.671875-3.3125-2.867188-5.433593-.195312-2.117188.460938-4.230469 1.828126-5.863281zm-53.074219-26.023438h.457031c11.734375.042969 23.347656 2.375 34.191406 6.855469 4.09375 1.671875 6.054688 6.339843 4.382813 10.433593-1.667969 4.089844-6.339844 6.054688-10.429688 4.382813-8.925781-3.703125-18.484375-5.628906-28.144531-5.671875-4.460938.015625-8.113281-3.539062-8.222656-8-.054688-2.097656.742187-4.125 2.203125-5.632812 1.460937-1.503907 3.464843-2.355469 5.5625-2.367188zm-64.183594 25.601562c8.851563-7.59375 18.804687-13.796874 29.519531-18.402343 2.644532-1.144531 5.699219-.785157 8 .949219 2.300782 1.734374 3.492188 4.570312 3.117188 7.429687-.371094 2.855469-2.253906 5.292969-4.925782 6.375-9.210937 3.976563-17.773437 9.320313-25.390624 15.855469-3.386719 2.625-8.242188 2.113281-11.007813-1.160156-2.769531-3.273438-2.464844-8.144532.6875-11.046876zm24.898437 110.398438c0-4.488281-.121093-10.457031-.257812-15.800781-.113281-4.417969 3.382812-8.089844 7.800781-8.199219 2.132813-.097656 4.214844.683594 5.761719 2.152344 1.546875 1.472656 2.425781 3.511718 2.4375 5.648437.175781 7.09375.289062 12.289063.3125 16.199219h15.6875v-16c0-4.417969 3.582031-8 8-8s8 3.582031 8 8v16h8c15.785156-.070312 30.117188 9.191406 36.546875 23.605469 6.425781 14.417969 3.734375 31.269531-6.867187 42.960937 18.230468 6.613282 29.066406 25.371094 25.695312 44.464844-3.375 19.09375-19.984375 33.003906-39.375 32.96875h-24v16c0 4.417969-3.582031 8-8 8s-8-3.582031-8-8v-16h-16v16c0 4.417969-3.582031 8-8 8s-8-3.582031-8-8v-16h-32c-4.417969 0-8-3.582031-8-8s3.582031-8 8-8h16v-112h-16c-4.417969 0-8-3.582031-8-8s3.582031-8 8-8zm-66.328124-56.871094c5.199218-10.015625 11.226562-19.582031 18.023437-28.59375 2.691406-3.453125 7.65625-4.101562 11.144531-1.453125 3.488282 2.648438 4.199219 7.605469 1.597656 11.125-6.253906 8.300781-11.804687 17.113281-16.589843 26.335938-1.304688 2.574219-3.890625 4.246093-6.769531 4.378906-2.882813.132813-5.609376-1.296875-7.144532-3.738281-1.53125-2.441406-1.632812-5.519532-.261718-8.054688zm-22.730469 62.933594c2.441406-10.890625 5.542969-21.625 9.289062-32.140625.957031-2.699219 3.285157-4.683594 6.101563-5.199219 2.816406-.511718 5.695312.515625 7.542968 2.703125 1.851563 2.183594 2.390626 5.191407 1.417969 7.886719-3.515625 9.910156-6.425781 20.023438-8.710937 30.289062-.820313 3.644532-4.054688 6.238282-7.792969 6.246094-.589844 0-1.183594-.066406-1.757813-.199218-2.082031-.457032-3.898437-1.726563-5.039062-3.523438-1.144531-1.800781-1.523438-3.980469-1.050781-6.0625zm-5.445313 32.9375c.261719-2.878906 2.054688-5.394531 4.695313-6.574219 2.636719-1.183593 5.707031-.847656 8.03125.871094 2.324219 1.722656 3.539062 4.5625 3.175781 7.429687-1.113281 10.386719-1.667969 20.828126-1.65625 31.273438.007812 4.449219-3.550781 8.082031-8 8.160156-2.105469.035156-4.136719-.777344-5.640625-2.25-1.503906-1.476562-2.351563-3.492187-2.359375-5.597656v-.609375c.007812-10.925781.601562-21.839844 1.785156-32.703125zm0 0"/><path d="m367.863281 232h-48c-.457031 21.527344-2.996093 42.960938-7.589843 64h47.628906c4.8125-21.007812 7.480468-42.453125 7.960937-64zm0 0"/><path d="m359.894531 152h-47.628906c4.59375 21.039062 7.132813 42.472656 7.589844 64h48c-.480469-21.546875-3.148438-42.992188-7.960938-64zm0 0"/><path d="m355.761719 312h-47.515625c-6.070313 22.351562-14.917969 43.851562-26.34375 64h45.601562c12.324219-19.929688 21.835938-41.464844 28.257813-64zm0 0"/><path d="m355.761719 136c-6.417969-22.535156-15.921875-44.070312-28.242188-64h-45.597656c11.421875 20.148438 20.269531 41.648438 26.34375 64zm0 0"/></svg>