<svg version="1.2" xmlns="http://www.w3.org/2000/svg" viewBox="0 0 1000 500" width="1000" height="500">
	<title>New Project</title>
	<style>
		.s0 { fill: #000000 } 
		.s1 { fill: #6d6d6d } 
	</style>
	<path id="BlocChain" class="s0" aria-label="BlocChain"  d="m96.4 204.1q-6.4 11.5-11.4 17.3-4.9 5.8-8.1 5.8-4.3 0-4.3-9.9 0-9.6 2.8-17.2 2.7-7.6 7.6-13.5 5-5.9 11.7-10 6.8-4.2 14.8-6.9 8.1-2.7 17.1-4 9-1.2 18.5-1.2 11 0 22.2 1.6 11.1 1.6 21.3 4.5 10.3 3 19.2 7.2 8.9 4.1 15.4 9.1 6.7 5 10.4 10.9 3.8 5.8 3.8 12.2 0 7.5-3.3 14.8-3.3 7.3-10.3 13.3-6.9 5.9-17.9 9.7-10.8 3.8-26 4.1 9.6 0 16.8 3.1 7.3 3 12.2 8.3 4.8 5.2 7.3 12 2.4 6.8 2.4 14.4 0 6.1-1.6 12.5-1.7 6.3-5 12.2-3.3 5.8-8.3 11-5 5.1-11.7 8.9-6.7 3.8-15.1 6-8.4 2.2-18.4 2.2-6.4 0-13.4-0.8-7-0.9-14.3-2.2-7.1-1.5-14-3.4-7-2-13.1-4.2-2.8-0.7-4.9-2.1-2.1-1.4-2.1-4.9 0-16.2 0.8-33.2 0.9-17 3.4-33.2 2.6-16.2 7.4-30.8 4.8-14.8 12.7-26.4 6.9-4.8 12.6-4.8 7.1 0 11.9 8-4.5 6.1-7.7 13.5-3.2 7.4-5.3 15.6-2.2 8.1-3.5 16.6-1.3 8.5-2.1 16.6-0.5 4.6-0.9 9.8-0.2 5.2-0.5 10.5-0.3 5.4-0.5 10.8-0.1 5.2-0.1 10.1 0 0.8 0 2.2 0.1 1.3 0.3 2.8 0.2 1.5 0.6 2.7 0.3 1.2 1.1 1.8 6 1.9 12.8 3.3 6.9 1.4 13.7 1.4 8.3 0 16.1-2 7.8-2 13.9-6.3 6-4.4 9.6-11.1 3.7-6.9 3.7-16.6 0-5.6-2.1-9.3-2.1-3.8-5.7-6.4-3.4-2.5-7.9-4-4.4-1.5-9.1-2.7-4.5-1.3-9-2.5-4.4-1.1-7.9-2.9-3.5-1.8-5.6-4.5-2.2-2.7-2.2-7 0-2.1 0.2-3.5 0.3-1.6 1.2-2.6 1-0.9 2.7-1.4 1.9-0.5 5-0.5 4.2 0 7.6 0.4 3.6 0.3 7.6 0.3 9.3 0 16.9-2.3 7.6-2.3 12.8-6.2 5.4-3.9 8.2-9.1 3-5.3 3-11.2 0-3.9-2.3-7.2-2.2-3.3-6.3-5.8-4-2.7-9.5-4.6-5.5-2-11.9-3.2-6.5-1.4-13.6-2-7.1-0.7-14.4-0.7-9.3 0-18.4 1.1-9 1-16.8 3.1-7.7 2.1-13.8 5.3-5.9 3.1-9 7.3zm154.5 129.9q-5.2 0-9.8-4.6-4.5-4.7-7.9-12.5-3.3-7.8-5.3-18.1-1.9-10.3-1.9-21.6 0-8.7 1.3-18.9 1.3-10.2 3.7-21.1 2.5-10.8 5.8-21.8 3.4-10.9 7.6-21 4.3-10 9.3-18.7 5-8.8 10.4-15.2 5.5-6.6 11.5-10.3 5.9-3.7 12.1-3.7 4.2 0 6.9 2 2.7 1.8 4.3 4.9 1.6 3.2 2.1 7.2 0.7 3.9 0.7 8 0 9.2-2.1 18.7-2.1 9.5-5.7 19.2-3.5 9.5-8.2 19.2-4.7 9.7-9.8 19.2-5 9.5-10.2 18.8-5.1 9.2-9.6 18-0.5 0.9-1 2.5-0.5 1.6-1 3.4-0.5 1.8-1 3.8-0.5 2.1-0.8 4v1.4q0 2.5 0.5 5 0.6 2.3 1.4 4.3 0.8 1.8 1.6 3 0.9 1.1 1.7 1.1 1.8 0 4.2-0.8 2.4-0.8 5.1-2.1 2.7-1.3 5.5-3 2.9-1.7 5.5-3.5 6.2-4.1 12.9-9.5l8 20.5q-8.7 6.3-17.2 11.2-3.7 2-7.7 4.1-3.9 1.9-7.9 3.5-4 1.5-7.8 2.5-3.8 0.9-7.2 0.9zm0.1-78.1q4.4-7.8 9.3-17.6 5-9.8 9.4-20.1 4.4-10.4 7.6-20.6 3.2-10.4 4.1-19.3 0-2.8-0.2-4.7-0.1-2.1-0.9-2.1-2.8 0-6.1 3.7-3.2 3.6-6.6 9.9-3.2 6.2-6.2 14.5-2.9 8.3-5.3 17.7-2.3 9.4-3.7 19.3-1.4 9.9-1.4 19.3zm95.1 3.9l-0.8 1.1q2.8 5.6 4.2 12 1.4 6.2 1.4 12 0 5.7-1.2 11.6-1.3 5.9-3.7 11.3-2.4 5.5-5.9 10.3-3.4 4.8-7.9 8.3-4.4 3.5-9.7 5.5-5.2 2.1-11.2 2.1-8.6 0-14.7-3.7-6.1-3.8-10-9.9-3.9-6-5.8-13.6-1.7-7.7-1.7-15.5 0-10.7 3.2-20 3.2-9.4 9.2-16.2 6-6.9 14.7-10.8 8.7-4 19.6-4 9.2 0 17.3 2.9 8.1 2.8 15.2 7.7 7.1 4.8 13.2 11 6.1 6.3 11.4 12.9l-1.9 13.8q-2.6-3.5-7.1-7.6-4.5-4.1-9.6-8-5-3.9-9.8-7.4-4.9-3.5-8.4-5.8zm-31 55.5q3.3 0 6.5-3.4 3.1-3.4 5.4-8.5 2.4-5.1 3.7-11.3 1.5-6.2 1.5-11.9 0-4.5-0.7-8.3-0.7-3.9-2-6.7-1.4-2.9-3.6-4.5-2.1-1.7-5.1-1.7-4 0-7.6 3.4-3.7 3.4-6.4 8.8-2.7 5.3-4.3 11.7-1.6 6.5-1.6 12.4 0 4.1 0.8 7.7 0.8 3.7 2.5 6.4 1.6 2.6 4.4 4.3 2.7 1.6 6.5 1.6zm85.7 18.7q-9 0-15.9-3.3-6.7-3.3-11.3-8.9-4.6-5.6-6.9-12.9-2.4-7.3-2.4-15.2 0-5.7 1.2-11.8 1.2-6.2 3.4-12.1 2.4-5.9 5.7-11.3 3.4-5.4 7.8-9.4 4.5-4.1 10-6.4 5.4-2.4 12-2.4 5.5 0 10.2 1.7 4.8 1.7 8.1 4.7 3.4 3 5.3 7.2 2 4.1 2 8.9 0 3.3-0.9 6.6-0.9 3.2-2.7 5.8-1.6 2.6-4.1 4.1-2.4 1.6-5.4 1.6-4.6 0-6.1-2.5-1.4-2.4-1.4-6.7 0-1.8 0.1-3.7 0.2-2 0.2-3.5 0-2.4-0.5-3.9-0.4-1.6-2.1-1.6-4 0-6.8 2-2.9 1.8-4.9 4.9-2 3.1-3.1 7-1.2 3.8-1.9 7.6-0.7 3.8-0.9 7.3-0.2 3.4-0.2 5.8 0 3.5 0.6 7.3 0.7 3.8 2.5 7 1.7 3.2 4.7 5.3 3.1 2.1 7.9 2.1 4.6 0 10.3-2.9 5.7-2.9 11.3-7.3 5.8-4.4 11-9.7 5.1-5.2 8.9-9.9l6.7 11.3q-7.3 10.4-15.8 18.6-3.6 3.6-7.9 6.9-4.2 3.3-8.9 5.9-4.6 2.6-9.7 4.2-5 1.6-10.1 1.6z"/>
	<path id="BlocChain" class="s1" aria-label="BlocChain"  d="m602.4 280v21q-4.8 2-9.3 5.5-4.5 3.3-9 7.3-4.6 4-9.6 8.5-4.9 4.4-10.7 8.8-5.6 4.3-12.4 8.3-6.7 3.9-14.9 6.9-8.1 2.9-18 4.7-9.7 1.7-21.7 1.7-13.1 0-23.8-5.2-10.5-5.4-18-14.4-7.6-9.1-11.7-21-4-12-4-25.2 0-9 2-19.2 1.9-10.4 5.5-21 3.8-10.7 9-21.4 5.3-10.6 11.9-20.4 6.8-9.8 14.8-18.1 8-8.4 17.1-14.5 9.1-6.3 19.1-9.8 10.1-3.5 20.9-3.5 7.1 0 14.3 2.5 7.2 2.5 13 7.7 5.7 5.1 9.3 13 3.8 8 3.8 18.7 0 7.2-2.4 14.6-2.2 7.4-6.2 14.2-4 6.7-9.5 12.7-5.4 6-11.6 10.3-6.3 4.3-13 6.9-6.8 2.5-13.5 2.5-8.9 0-13.3-2.3-4.4-2.5-4.4-7 0-0.7-0.1-1.8 0-1.1 0-2.3 0-1.7 0.2-3.6 0.2-1.9 0.8-3.5 0.6-1.5 1.7-2.5 1.1-1 3.1-1 1.2 0 2 0.4 0.9 0.3 2 0.7 1.1 0.4 2.5 0.8 1.6 0.2 3.9 0.2 6.3 0 12.6-2.7 6.5-2.7 11.6-7.7 5.1-5 8.4-11.8 3.3-6.9 3.3-15.3 0-4.3-1.2-8.3-1.2-4-3.8-6.9-2.6-3-6.8-4.8-4.1-1.8-10.1-1.8-7 0-13.8 3.1-6.6 3-12.8 8.3-6.1 5.3-11.7 12.5-5.4 7.2-10.1 15.5-4.7 8.2-8.5 17.2-3.7 8.9-6.4 17.8-2.6 8.9-4.1 17.3-1.3 8.3-1.3 15.3 0 10.1 2.4 17.6 2.5 7.4 7.1 12.4 4.6 5 11.3 7.4 6.6 2.4 14.9 2.4 10.3 0 19.2-2.5 9-2.6 17.1-6.8 8.1-4.2 15.6-9.5 7.7-5.3 15.2-10.5 7.6-5.4 15.4-10.2 7.9-4.9 16.7-8.2zm12.4-8.1l2 1.4q4-5.3 9-11.4 4.9-6 10.3-11.2 5.4-5.3 10.6-8.7 5.4-3.5 10.1-3.5 1.2 0 2.6 0.5 1.5 0.4 2.8 1.5 1.3 1.2 2.2 3.4 0.9 2 0.9 5.3 0 6.7-1.9 13-1.8 6.3-4.1 12.6-2.1 6.3-4 12.8-1.7 6.6-1.7 13.7 0 3.9 1.2 6.2 1.1 2.4 3 2.4 2.3 0 5-1 2.6-1 5.2-2.5 2.7-1.6 5.2-3.6 2.6-2 4.8-4.2 5.4-4.9 10.5-11.3l1.7 26q-1.8 1.4-4.5 3.4-2.6 2.1-5.9 4.4-3.3 2.3-7.1 4.6-3.8 2.3-7.7 4.2-3.8 1.8-7.7 2.9-3.8 1.2-7.3 1.2-5.4 0-9.4-2.8-3.9-3-6.4-7.4-2.6-4.4-3.9-9.7-1.2-5.3-1.2-10 0-3.1 0.8-6.9 0.8-3.9 2-7.8 1.3-3.9 2.7-7.6 1.6-3.8 2.9-6.7 1.3-2.9 2.3-4.8 1-1.8 1.3-2.1l-2.1-0.3q-1.6 1.1-5.6 5.5-3.9 4.3-8.9 11.1-5 6.6-10.4 15-5.2 8.3-9.5 17.2-2.2 4.4-3.6 7.7-1.3 3.3-2.7 5.4-1.3 2.1-2.8 3.1-1.6 1.1-4 1.1-3.2 0-5.1-1.9-1.9-1.8-2.8-4.8-1-3.2-1.3-7.1-0.3-3.9-0.3-8 0-6.5 0.1-17.1 0.2-10.6 1-23.5 0.8-12.9 2.2-27.2 1.5-14.2 4.1-28.1 2.8-13.9 6.8-26.5 4.1-12.7 9.8-22.3 5.9-9.7 13.7-15.3 7.8-5.7 18-5.7 5.2 0 8.6 1.6 3.4 1.5 5.3 4.4 2.1 2.8 2.9 6.8 0.7 3.9 0.7 8.8 0 7.2-2 16-2.1 8.8-5.5 18.3-3.3 9.4-7.6 19.2-4.3 9.7-8.8 18.8-4.5 9.1-8.9 17.2-4.3 8.1-7.6 14.3zm10.7-59q5.7-14.9 8.3-25.2 2.6-10.2 2.6-15.1 0-7.4-2-7.4-2.5 0-7.5 8.3-5 8.3-11.7 24.1-1.7 5.3-3.1 11.1-1.4 5.8-2.6 11.5-1 5.7-2 11.3-0.9 5.4-1.6 10.4-1.6 11.6-2.5 22.8 2.6-6.2 5.8-13.4 3.1-7.2 6.1-14.3 3-7.1 5.7-13.4 2.7-6.3 4.5-10.7zm155.1 75.5l4.7 21.7q-2.2 3.1-6 7.3-3.7 4.2-8.4 8-4.7 3.8-10.1 6.5-5.4 2.6-10.7 2.6-6.5 0-10.8-4.1-4.3-4.2-7.4-12.1-2.3 2.7-5.8 5.5-3.4 2.9-7.5 5.2-4 2.3-8.4 3.7-4.4 1.5-8.8 1.5-4.7 0-9.1-1.9-4.4-1.9-7.9-5.4-3.4-3.6-5.4-8.7-2.1-5.2-2.1-11.6 0-7.4 2.1-15.1 2-7.7 5.6-15 3.7-7.4 8.5-14 5-6.5 10.9-11.4 5.8-4.9 12.3-7.7 6.5-3 13.3-3 2.2 0 3.5 0.9 1.2 0.9 2 2.1 0.9 1 1.7 2.1 0.8 1.1 1.9 1.6 1.2 0.5 2.4 0.7 1.3 0.1 2.5 0.1 1.1 0 2.2 0 1.1-0.1 2.2-0.1 1.5 0 2.8 0.3 1.2 0.3 2.2 1.2 1 1 1.5 2.8 0.6 1.7 0.6 4.8 0 4.6-1 10.4-1 5.7-2.2 11.7-1.1 6-2.1 12-1 6-1 11.4 0 4.5 0.8 7.2 0.9 2.5 3.6 2.5 2 0 4.3-1 2.2-1 4.5-2.7 2.3-1.6 4.6-3.7 2.3-2.1 4.4-4.4 4.8-5.3 9.6-11.9zm-78.7 14q0 2.4 0.3 4.7 0.4 2.3 1.3 4.1 0.9 1.8 2.3 3 1.5 1 3.7 1 3.7 0 6.6-3.1 2.9-3.1 5.1-7.5 2.1-4.4 3.4-9.1 1.3-4.7 1.7-7.8l6-28.7q-4 0-7.8 2.1-3.8 1.9-7.2 5.3-3.4 3.4-6.2 7.8-2.8 4.4-4.9 9.3-2 4.8-3.2 9.7-1.1 4.9-1.1 9.2zm131.3-9v19.8q-3.5 3.2-8.8 6.9-5.2 3.6-11.2 6.8-6.1 3-12.4 5-6.3 2.1-12 2.1-5 0-8.6-1.4-3.4-1.4-5.5-4-2.2-2.5-3.1-6.1-0.9-3.7-0.9-8.1 0-6.2 1.3-14.3 1.5-8.2 3.6-16.9 2-8.8 4.3-17.5 2.3-8.7 4.1-16 0.6-2.5 2.7-4.3 2-1.8 4.6-2.9 2.6-1.2 5.4-1.7 2.8-0.6 5-0.6 4.1 0 5.6 1.6 1.5 1.5 1.5 4 0 2.2-1 6.3-1 4-2.5 9.1-1.4 5.1-3.1 11.1-1.6 5.8-3.1 11.8-1.5 5.9-2.4 11.5-1 5.6-1 10.1 0 4.4 1 7 0.9 2.5 4 2.5 3.5 0 7.8-2.4 4.3-2.4 8.7-5.9 4.4-3.5 8.6-7.2 4.2-3.7 7.4-6.3zm-43.7-80.6q0-2.2 1-5.1 1-2.8 3.1-5.2 2.3-2.6 5.9-4.2 3.7-1.8 9.2-1.8 3.4 0 6.4 0.8 3 0.8 5.3 2.4 2.2 1.6 3.5 4.2 1.4 2.7 1.4 6.3 0 3.3-1.1 6.4-1.1 3.1-3.4 5.6-2.4 2.4-6 4-3.5 1.5-8.5 1.5-8.6 0-12.7-4.1-4.1-4.1-4.1-10.8zm36.7 100.8q0-6.5 0.8-14.9 0.8-8.5 2-17.1 1.1-8.8 2.6-16.9 1.5-8.1 2.8-13.9 1.1-4.5 4.1-7.5 3.2-3.1 8.4-3.1 5.3 0 7.4 3.3 2 3.2 2 8.6 0 1.4-0.3 4-0.3 2.4-0.8 5.4-0.3 3-0.8 6.2-0.5 3.1-1 5.9-0.4 2.6-0.7 4.6-0.3 2-0.3 2.7h2q0.6-1.1 1.8-3.4 1.3-2.5 3-5.6 1.6-3.1 3.5-6.6 1.9-3.5 3.6-6.6 1.6-3.2 3-5.7 1.4-2.4 2.1-3.6 3.1-5.2 7.1-7.2 4-2 8.9-2 4.9 0 7.7 4.2 2.9 4.1 2.9 11.3 0 1.1-0.5 3.6-0.4 2.5-1 6-0.7 3.6-1.6 7.8-0.8 4.2-1.5 8.6-0.7 4.4-1.1 8.6-0.4 4.3-0.4 8 0 6 1.4 9.9 1.6 3.9 4.8 3.9 1.5 0 3.3-0.9 2-0.8 4.1-2.2 2.3-1.5 4.5-3.3 2.4-1.9 4.6-3.8 5.2-4.6 10.9-10.4l1.6 21.9-4.9 3.7q-4 3-8.2 6.1-4.1 3-8.6 5.4-4.5 2.4-9.3 3.9-4.9 1.5-10.3 1.5-5.4 0-9.1-7.7-3.6-7.8-3.6-22.8 0-5.8 0.8-12.6 0.8-6.8 2-14.6h-1.6l-25.6 50.8q-2 4-4.4 5.4-2.4 1.5-5.7 1.5-4 0-6.4-1.7-2.4-1.7-3.8-4.6-1.3-2.9-1.8-6.5-0.4-3.7-0.4-7.6z"/>
</svg>