<svg id="ethereum" enable-background="new 0 0 360 360" height="512" viewBox="0 0 360 360" width="512" xmlns="http://www.w3.org/2000/svg"><path d="m180 30c-82.842 0-150 67.158-150 150s67.158 150 150 150 150-67.158 150-150-67.158-150-150-150zm0 41.667 66.033 110.442-66.033 39.116-66.033-39.117zm-.033 216.666c-.042 0-66.058-93.208-66.217-93.442.317-.033 66.025 38.858 66.217 38.967.858-.333 65.992-38.933 66.283-38.917 0 .001-66.233 93.392-66.283 93.392z"/><path d="m186.017 354.896c-2.682 0-4.9-2.125-4.994-4.826-.096-2.76 2.063-5.074 4.823-5.171 3.826-.133 7.69-.401 11.487-.797 2.748-.295 5.205 1.708 5.491 4.454.287 2.747-1.708 5.205-4.454 5.491-4.024.42-8.121.704-12.177.846-.058.002-.118.003-.176.003zm-23.689-.804c-.172 0-.345-.009-.52-.026-4.031-.417-8.1-.981-12.093-1.677-2.72-.474-4.542-3.063-4.067-5.784.474-2.72 3.067-4.539 5.784-4.067 3.766.656 7.603 1.188 11.404 1.581 2.747.284 4.743 2.741 4.459 5.487-.265 2.572-2.437 4.486-4.967 4.486zm58.872-4.118c-2.242 0-4.281-1.519-4.848-3.793-.668-2.68.964-5.393 3.644-6.06 3.713-.925 7.437-1.992 11.065-3.172 2.628-.855 5.447.583 6.301 3.209s-.583 5.447-3.209 6.301c-3.852 1.252-7.802 2.385-11.741 3.365-.405.102-.811.15-1.212.15zm-93.639-3.215c-.51 0-1.029-.078-1.542-.244-3.868-1.253-7.736-2.658-11.497-4.178-2.56-1.034-3.797-3.948-2.763-6.509s3.951-3.797 6.509-2.763c3.542 1.431 7.187 2.755 10.832 3.936 2.627.851 4.067 3.67 3.216 6.298-.685 2.114-2.646 3.46-4.755 3.46zm127.03-8.95c-1.85 0-3.627-1.03-4.495-2.804-1.214-2.48-.187-5.475 2.294-6.688 3.434-1.681 6.85-3.502 10.152-5.413 2.393-1.387 5.45-.567 6.832 1.822 1.384 2.39.567 5.449-1.822 6.832-3.503 2.027-7.126 3.959-10.768 5.741-.707.346-1.456.51-2.193.51zm-159.522-5.509c-.849 0-1.708-.217-2.497-.672-3.512-2.029-6.997-4.209-10.36-6.479-2.289-1.545-2.892-4.653-1.347-6.942 1.544-2.288 4.652-2.893 6.941-1.347 3.171 2.141 6.458 4.196 9.769 6.109 2.391 1.382 3.209 4.439 1.828 6.831-.926 1.603-2.607 2.5-4.334 2.5zm189.619-13.346c-1.484 0-2.954-.658-3.94-1.918-1.702-2.175-1.319-5.317.855-7.02 3.014-2.358 5.979-4.851 8.815-7.406 2.053-1.85 5.213-1.686 7.062.366s1.685 5.213-.366 7.062c-3.007 2.71-6.152 5.353-9.347 7.854-.915.715-2.001 1.062-3.079 1.062zm-218.368-7.552c-1.192 0-2.388-.424-3.343-1.283-3.009-2.708-5.966-5.561-8.788-8.478-1.92-1.985-1.867-5.15.117-7.07 1.985-1.919 5.15-1.866 7.07.117 2.662 2.752 5.451 5.442 8.29 7.997 2.053 1.848 2.219 5.009.372 7.062-.987 1.097-2.35 1.655-3.718 1.655zm243.916-17.135c-1.135 0-2.275-.384-3.212-1.171-2.115-1.775-2.39-4.93-.614-7.044 2.464-2.936 4.853-5.988 7.098-9.073 1.625-2.232 4.753-2.727 6.984-1.102 2.233 1.625 2.727 4.752 1.102 6.984-2.381 3.272-4.913 6.51-7.525 9.62-.99 1.178-2.406 1.786-3.833 1.786zm-267.709-9.247c-1.543 0-3.066-.712-4.045-2.056-2.385-3.272-4.687-6.673-6.841-10.106-1.468-2.339-.761-5.425 1.578-6.893 2.339-1.469 5.424-.762 6.893 1.578 2.032 3.238 4.203 6.445 6.452 9.532 1.626 2.231 1.135 5.358-1.096 6.985-.889.648-1.92.96-2.941.96zm287.606-20.205c-.794 0-1.598-.189-2.347-.588-2.438-1.298-3.36-4.326-2.063-6.764 1.799-3.377 3.501-6.861 5.059-10.354 1.124-2.522 4.08-3.654 6.603-2.53s3.655 4.08 2.53 6.603c-1.652 3.706-3.457 7.401-5.365 10.983-.9 1.689-2.629 2.65-4.417 2.65zm-305.413-10.52c-1.912 0-3.737-1.103-4.568-2.961-1.655-3.703-3.197-7.507-4.583-11.305-.947-2.595.388-5.465 2.982-6.412 2.592-.945 5.464.388 6.411 2.982 1.307 3.579 2.76 7.164 4.32 10.654 1.126 2.521-.004 5.479-2.525 6.604-.662.298-1.355.438-2.037.438zm318.746-22.445c-.455 0-.918-.063-1.377-.193-2.655-.759-4.192-3.526-3.434-6.182 1.052-3.678 1.985-7.437 2.775-11.172.57-2.702 3.225-4.432 5.926-3.857 2.702.571 4.429 3.225 3.857 5.926-.838 3.964-1.828 7.951-2.943 11.852-.627 2.195-2.629 3.626-4.804 3.626zm-329.753-11.323c-2.311 0-4.386-1.61-4.886-3.961-.843-3.968-1.556-8.014-2.119-12.027-.383-2.734 1.522-5.263 4.257-5.646 2.732-.387 5.262 1.522 5.646 4.257.53 3.783 1.202 7.597 1.997 11.336.574 2.701-1.15 5.356-3.851 5.931-.35.074-.7.11-1.044.11zm335.886-23.673c-.115 0-.231-.004-.349-.012-2.755-.189-4.834-2.577-4.645-5.332.262-3.803.395-7.675.395-11.51l-.001-.385c0-2.761 2.238-5 5-5s5 2.239 5 5l.001.347c0 4.101-.141 8.205-.418 12.235-.182 2.638-2.378 4.657-4.983 4.657zm-339.599-11.662c-2.761 0-5-2.238-5-5v-.154c0-4.029.136-8.066.405-12.038.187-2.754 2.577-4.833 5.326-4.651 2.755.187 4.837 2.571 4.651 5.326-.254 3.748-.382 7.558-.382 11.325v.192c0 2.762-2.238 5-5 5zm338.308-24.226c-2.451 0-4.592-1.804-4.945-4.301-.534-3.782-1.211-7.595-2.01-11.333-.577-2.701 1.145-5.358 3.845-5.935 2.701-.577 5.357 1.144 5.935 3.845.848 3.966 1.565 8.012 2.133 12.024.386 2.734-1.518 5.264-4.251 5.65-.239.034-.475.05-.707.05zm-334.665-11.113c-.341 0-.687-.035-1.033-.108-2.703-.568-4.433-3.219-3.865-5.921.834-3.968 1.82-7.958 2.931-11.857.756-2.656 3.523-4.195 6.179-3.438 2.656.756 4.195 3.523 3.438 6.179-1.047 3.675-1.976 7.434-2.762 11.174-.495 2.353-2.573 3.971-4.888 3.971zm326.025-23.346c-2.038 0-3.953-1.256-4.694-3.281-1.312-3.579-2.77-7.162-4.333-10.648-1.13-2.52-.003-5.479 2.517-6.608 2.52-1.13 5.479-.003 6.608 2.517 1.659 3.7 3.205 7.501 4.597 11.299.95 2.593-.381 5.465-2.975 6.415-.568.207-1.149.306-1.72.306zm-315.098-10.475c-.678 0-1.368-.139-2.027-.432-2.524-1.122-3.66-4.076-2.539-6.6 1.646-3.703 3.447-7.401 5.354-10.99 1.295-2.438 4.323-3.367 6.761-2.07 2.439 1.295 3.366 4.322 2.07 6.761-1.797 3.384-3.495 6.87-5.046 10.36-.829 1.863-2.657 2.971-4.573 2.971zm299.456-21.394c-1.663 0-3.288-.829-4.238-2.34-2.03-3.23-4.204-6.435-6.46-9.524-1.629-2.23-1.142-5.358 1.088-6.987 2.229-1.628 5.357-1.142 6.986 1.088 2.394 3.276 4.699 6.675 6.853 10.101 1.47 2.338.766 5.424-1.573 6.894-.827.521-1.746.768-2.656.768zm-281.693-9.402c-1.019 0-2.046-.31-2.934-.955-2.235-1.622-2.731-4.749-1.108-6.983 2.382-3.281 4.91-6.521 7.515-9.629 1.773-2.117 4.928-2.395 7.044-.621 2.117 1.773 2.395 4.927.621 7.044-2.457 2.932-4.842 5.988-7.088 9.082-.979 1.347-2.504 2.062-4.05 2.062zm259.75-18.539c-1.306 0-2.61-.509-3.591-1.521-2.658-2.743-5.449-5.43-8.297-7.986-2.055-1.845-2.226-5.006-.381-7.061s5.006-2.226 7.061-.381c3.02 2.71 5.98 5.56 8.799 8.47 1.922 1.983 1.872 5.148-.111 7.07-.972.941-2.226 1.409-3.48 1.409zm-235.99-7.892c-1.365 0-2.725-.556-3.712-1.649-1.851-2.049-1.689-5.211.36-7.062 3.006-2.715 6.148-5.361 9.338-7.864 2.173-1.703 5.315-1.324 7.02.848 1.704 2.172 1.325 5.315-.848 7.02-3.009 2.361-5.973 4.856-8.808 7.417-.956.864-2.155 1.29-3.35 1.29zm208.734-14.917c-.961 0-1.932-.276-2.788-.853-3.172-2.137-6.461-4.188-9.775-6.098-2.393-1.379-3.214-4.436-1.835-6.829s4.433-3.217 6.829-1.835c3.515 2.026 7.002 4.202 10.367 6.467 2.29 1.542 2.896 4.65 1.354 6.94-.965 1.434-2.544 2.208-4.152 2.208zm-180.035-6.021c-1.724 0-3.401-.893-4.329-2.491-1.386-2.389-.574-5.448 1.814-6.834 3.507-2.036 7.127-3.971 10.762-5.753 2.479-1.217 5.475-.192 6.691 2.288 1.216 2.479.191 5.475-2.288 6.691-3.426 1.68-6.839 3.504-10.145 5.423-.789.458-1.653.676-2.505.676zm148.635-10.639c-.621 0-1.252-.117-1.864-.363-3.554-1.43-7.2-2.75-10.839-3.924-2.628-.848-4.071-3.666-3.224-6.293s3.67-4.072 6.294-3.223c3.861 1.246 7.73 2.646 11.501 4.163 2.562 1.03 3.803 3.943 2.772 6.505-.784 1.95-2.659 3.135-4.64 3.135zm-116.218-3.87c-2.105 0-4.063-1.34-4.752-3.45-.856-2.625.577-5.448 3.202-6.305 3.856-1.259 7.806-2.396 11.738-3.379 2.676-.673 5.393.958 6.063 3.638.67 2.679-.958 5.394-3.637 6.063-3.706.927-7.427 1.998-11.061 3.184-.515.169-1.038.249-1.553.249zm82.033-5.853c-.284 0-.571-.024-.86-.075-3.761-.652-7.598-1.18-11.403-1.568-2.747-.281-4.747-2.735-4.467-5.482.281-2.747 2.735-4.749 5.482-4.466 4.036.412 8.106.972 12.097 1.664 2.721.472 4.544 3.06 4.072 5.78-.422 2.433-2.534 4.147-4.921 4.147zm-47.291-1.558c-2.526 0-4.695-1.908-4.966-4.476-.29-2.746 1.702-5.207 4.448-5.497 4.022-.424 8.119-.713 12.177-.859 2.748-.104 5.077 2.057 5.176 4.817s-2.057 5.077-4.817 5.176c-3.829.138-7.693.411-11.487.811-.178.019-.356.028-.531.028z"/></svg>